<svg id="Capa_1" data-name="Capa 1" xmlns="http://www.w3.org/2000/svg" viewBox="0 0 486.36 111.29"><defs><style>.cls-1{fill:#ffd500;}</style></defs><path class="cls-1" d="M129.67,454.89l4.57-22.84L140,454.89Zm-23.4,34.24h16.55L126.25,472h18l4.22,17.12h17.7l-22.84-92.81H126.25l-20,92.81Z" transform="translate(-54.46 -379.48)"/><path class="cls-1" d="M197.68,490.76c17.12,0,28.54-12.9,28.54-28.53V396.32h-18.5v65c0,7.19-2.85,11.42-10,11.42s-9.94-4.23-9.94-11.42v-65H169.13v65.91c0,15.63,11.42,28.53,28.55,28.53" transform="translate(-54.46 -379.48)"/><path class="cls-1" d="M255.43,470.53V413.45h7.08c8.56,0,12.9,4.33,12.9,12.9v31.39c0,8.56-4.34,12.79-12.9,12.79Zm-18.61,18.6h28.54c20,0,28.54-14.27,28.54-28.54V424.86c0-18.49-14.27-28.54-28.54-28.54H236.82v92.81Z" transform="translate(-54.46 -379.48)"/><polygon class="cls-1" points="249.48 109.66 268.09 109.66 268.09 16.85 249.48 16.85 249.48 109.66 249.48 109.66"/><polygon class="cls-1" points="290.79 109.66 309.4 109.66 309.4 35.45 326.53 35.45 326.53 16.85 273.66 16.85 273.66 35.45 290.79 35.45 290.79 109.66 290.79 109.66"/><path class="cls-1" d="M413.74,472.73c-7.08,0-9.94-4.23-9.94-11.42V422.84c0-5.93,2.86-11.42,9.94-11.42s9.93,5.49,9.93,11.42v38.47c0,7.19-2.85,11.42-9.93,11.42m0,18c17.12,0,28.54-12.9,28.54-28.53V423.41c0-15.75-11.42-28.54-28.54-28.54s-28.55,12.79-28.55,28.54v38.82c0,15.63,11.42,28.53,28.55,28.53" transform="translate(-54.46 -379.48)"/><path class="cls-1" d="M471.27,436.85V414.93h9.94c8.56,0,12.9,3.43,12.9,10.51s-4.34,11.41-12.9,11.41Zm-18.6,52.28h18.6V454.89h8.57l12.79,34.24h21.46l-15.75-38.58c8.79-3.88,14.26-13.59,14.26-25,0-20-12.21-29.23-32.19-29.23H452.67v92.81Z" transform="translate(-54.46 -379.48)"/><polygon class="cls-1" points="49 0 30.39 0 30.39 50.15 49 50.15 49 0 49 0"/><polygon class="cls-1" points="44.92 91.05 18.61 91.05 18.61 16.85 0 16.85 0 91.05 0 109.66 18.61 109.66 44.92 109.66 44.92 91.05 44.92 91.05"/><polygon class="cls-1" points="467.75 109.66 486.36 109.66 486.36 16.85 467.75 16.85 467.75 109.66 467.75 109.66"/></svg>