<?xml version="1.0" encoding="utf-8"?>
<!DOCTYPE svg PUBLIC "-//W3C//DTD SVG 1.1//EN" "http://www.w3.org/Graphics/SVG/1.1/DTD/svg11.dtd">
<svg version="1.1" id="Layer_1" xmlns="http://www.w3.org/2000/svg" xmlns:xlink="http://www.w3.org/1999/xlink" x="0px" y="0px"
	 width="519px" height="390px" viewBox="0 0 519 390" enable-background="new 0 0 519 390" xml:space="preserve">
<g fill="#000000">
	<path d="M99.769,232.474c-2.229,5.772-5.452,10.209-9.67,13.313c-4.22,3.106-9.313,4.656-15.283,4.656
		c-5.969,0-11.164-1.593-15.581-4.775c-4.418-3.182-7.801-7.658-10.151-13.433c-2.348-5.769-3.521-12.517-3.521-20.238
		c0-7.798,1.174-14.545,3.521-20.234c2.351-5.695,5.713-10.131,10.093-13.317c4.373-3.178,9.588-4.773,15.64-4.773
		c5.97,0,11.063,1.575,15.283,4.718c4.218,3.143,7.441,7.563,9.67,13.252c2.227,5.691,3.342,12.477,3.342,20.354
		C103.111,219.877,101.996,226.705,99.769,232.474 M112.723,153.137c-8.161-5.33-17.413-8-27.759-8
		c-6.37,0-11.959,0.973-16.776,2.925c-4.816,1.951-8.915,4.578-12.298,7.879c-3.383,3.306-6.189,6.986-8.417,11.046h-0.596V98.811
		H11.415v177.898h34.864v-20.295h0.833c2.153,4.379,4.955,8.279,8.418,11.698c3.464,3.424,7.622,6.131,12.478,8.122
		c4.854,1.987,10.426,2.984,16.715,2.984c10.666,0,20.097-2.706,28.296-8.118c8.199-5.414,14.605-13.137,19.223-23.163
		c4.616-10.03,6.926-22.008,6.926-35.94c0-13.929-2.369-25.886-7.105-35.877C127.327,166.132,120.88,158.472,112.723,153.137"/>
	<path d="M252.121,266.144c5.213-4.257,9.413-9.312,12.596-15.163c3.184-5.85,5.176-12.396,5.971-19.641l-33.789-2.627
		c-0.638,3.422-1.652,6.527-3.044,9.312c-1.393,2.79-3.145,5.155-5.253,7.106c-2.111,1.951-4.578,3.443-7.401,4.475
		c-2.826,1.036-5.991,1.556-9.492,1.556c-6.051,0-11.225-1.633-15.522-4.896c-4.299-3.264-7.564-7.802-9.792-13.61
		c-2.23-5.81-3.341-12.614-3.341-20.418c0-7.801,1.111-14.624,3.341-20.476c2.228-5.852,5.492-10.387,9.792-13.611
		c4.297-3.223,9.471-4.838,15.522-4.838c3.501,0,6.666,0.522,9.492,1.555c2.824,1.037,5.313,2.529,7.461,4.478
		c2.15,1.951,3.899,4.26,5.252,6.926c1.353,2.664,2.348,5.669,2.985,9.012l33.671-2.747c-0.878-7.164-2.925-13.648-6.147-19.46
		c-3.227-5.809-7.425-10.806-12.598-14.984c-5.175-4.179-11.184-7.403-18.028-9.67c-6.849-2.268-14.328-3.404-22.448-3.404
		c-12.973,0-24.277,2.825-33.906,8.479c-0.717,0.422-1.397,0.878-2.091,1.324L95.583,11h-6.784l81.632,147.316
		c-6.318,5.046-11.447,11.315-15.378,18.818c-5.294,10.111-7.939,21.853-7.939,35.221c0,13.295,2.646,24.975,7.939,35.043
		c5.294,10.071,12.755,17.93,22.388,23.581c9.629,5.65,20.934,8.476,33.906,8.476c8.2,0,15.741-1.153,22.627-3.462
		C240.859,273.686,246.909,270.402,252.121,266.144"/>
	<path d="M316.636,203.401c0-6.208,1.076-11.4,3.223-15.582c2.149-4.179,5.115-7.3,8.896-9.373c3.782-2.067,8.14-3.103,13.076-3.103
		c7.479,0,13.291,2.267,17.433,6.807c4.134,4.535,6.206,10.981,6.206,19.34v75.221h35.46v-81.547
		c0-10.585-1.848-19.601-5.551-27.045c-3.702-7.44-8.937-13.132-15.702-17.072c-6.766-3.94-14.684-5.91-23.759-5.91
		c-11.383,0-20.715,3.085-27.997,9.255c-4.919,4.162-9.007,9.49-12.31,15.921l-0.169-23.027h-34.267v129.424h35.461V203.401z"/>
	<path d="M192.705,354.314c-0.65,1.215-1.457,2.245-2.42,3.094c-0.966,0.847-2.093,1.505-3.391,1.969
		c-1.297,0.47-2.761,0.7-4.39,0.7c-2.859,0-5.277-0.748-7.255-2.245c-1.979-1.496-3.483-3.557-4.514-6.186
		c-1.033-2.624-1.547-5.667-1.547-9.126c0-3.491,0.514-6.557,1.547-9.201c1.031-2.644,2.535-4.713,4.514-6.21
		c1.978-1.495,4.396-2.242,7.255-2.242c1.597,0,3.044,0.23,4.341,0.694c1.295,0.469,2.436,1.123,3.417,1.972
		c0.98,0.85,1.793,1.854,2.443,3.018c0.647,1.166,1.104,2.461,1.372,3.888l12.27-1.144c-0.434-2.827-1.316-5.405-2.646-7.733
		c-1.327-2.323-3.041-4.319-5.138-5.985c-2.093-1.66-4.512-2.939-7.255-3.838c-2.745-0.897-5.71-1.346-8.902-1.346
		c-5.254,0-9.84,1.181-13.766,3.539c-3.921,2.362-6.973,5.66-9.151,9.902c-2.179,4.236-3.267,9.136-3.267,14.687
		c0,5.554,1.088,10.433,3.267,14.64c2.179,4.205,5.23,7.488,9.151,9.85c3.926,2.36,8.512,3.539,13.766,3.539
		c3.226,0,6.219-0.457,8.977-1.369c2.762-0.916,5.196-2.221,7.308-3.919c2.112-1.695,3.832-3.712,5.162-6.058
		c1.328-2.345,2.177-4.928,2.543-7.756l-12.27-1.146C193.827,351.764,193.352,353.104,192.705,354.314"/>
</g>
<rect fill="#000000" x="212.611" y="295.09" width="12.768" height="74.313"/>
<g fill="#000000">
	<path d="M266.42,349.701c0,2.03-0.498,3.901-1.494,5.609c-1,1.713-2.453,3.079-4.364,4.094c-1.915,1.013-4.216,1.521-6.907,1.521
		c-1.833,0-3.443-0.269-4.841-0.8c-1.396-0.532-2.479-1.313-3.241-2.344c-0.766-1.028-1.148-2.292-1.148-3.789
		c0-1.629,0.45-2.969,1.348-4.015c0.896-1.048,2.113-1.871,3.641-2.468c1.527-0.599,3.223-1.016,5.083-1.249
		c1.101-0.166,2.257-0.339,3.469-0.524c1.212-0.183,2.394-0.382,3.543-0.597c1.144-0.218,2.151-0.457,3.015-0.723
		c0.865-0.269,1.497-0.55,1.896-0.848V349.701z M272.53,318.932c-2.044-1.497-4.406-2.62-7.081-3.368
		c-2.678-0.748-5.561-1.122-8.654-1.122c-4.189,0-7.924,0.643-11.196,1.922c-3.275,1.279-5.954,3.125-8.029,5.533
		c-2.081,2.414-3.419,5.313-4.017,8.704l12.07,1.097c0.267-1.362,0.873-2.599,1.821-3.715c0.947-1.112,2.203-2.005,3.765-2.669
		c1.563-0.663,3.391-0.996,5.488-0.996c2.059,0,3.805,0.333,5.238,0.996c1.427,0.664,2.523,1.605,3.288,2.819
		c0.768,1.214,1.148,2.651,1.148,4.314v0.299c0,1.229-0.441,2.137-1.321,2.718c-0.881,0.581-2.303,1.004-4.265,1.271
		c-1.962,0.268-4.573,0.582-7.828,0.951c-2.696,0.298-5.297,0.754-7.807,1.371c-2.512,0.612-4.754,1.521-6.733,2.717
		c-1.979,1.196-3.541,2.792-4.69,4.788c-1.145,1.992-1.718,4.52-1.718,7.581c0,3.559,0.804,6.541,2.417,8.952
		c1.614,2.409,3.806,4.231,6.583,5.46c2.776,1.231,5.929,1.844,9.452,1.844c2.859,0,5.319-0.381,7.38-1.146
		c2.063-0.762,3.784-1.794,5.163-3.09c1.38-1.297,2.485-2.729,3.316-4.29h0.349v7.53h12.37v-36.506c0-3.194-0.575-5.942-1.723-8.255
		C276.17,322.328,274.575,320.428,272.53,318.932"/>
	<path d="M316.006,338.63l-9.477-1.996c-2.493-0.529-4.356-1.313-5.586-2.344c-1.231-1.03-1.847-2.342-1.847-3.938
		c0-1.829,0.858-3.352,2.572-4.565c1.71-1.211,3.944-1.818,6.704-1.818c2.928,0,5.252,0.723,6.985,2.168
		c1.729,1.447,2.739,3.25,3.04,5.412l11.723-0.995c-0.402-3.294-1.533-6.146-3.393-8.557c-1.866-2.411-4.366-4.279-7.507-5.611
		c-3.144-1.327-6.84-1.993-11.098-1.993c-4.356,0-8.169,0.691-11.445,2.069c-3.275,1.379-5.818,3.308-7.63,5.786
		c-1.814,2.476-2.719,5.378-2.719,8.701c0,4.023,1.307,7.324,3.915,9.9c2.608,2.579,6.474,4.397,11.594,5.461l9.229,1.946
		c2.362,0.5,4.174,1.255,5.436,2.269c1.265,1.016,1.896,2.319,1.896,3.915c0,1.86-0.897,3.409-2.693,4.639
		c-1.797,1.231-4.256,1.843-7.38,1.843c-3.126,0-5.621-0.687-7.481-2.066c-1.861-1.379-3.041-3.384-3.541-6.011l-12.32,0.995
		c0.467,3.593,1.739,6.635,3.815,9.129c2.079,2.496,4.788,4.388,8.129,5.687c3.345,1.297,7.156,1.944,11.446,1.944
		c4.489,0,8.474-0.716,11.944-2.143c3.475-1.432,6.194-3.434,8.155-6.01c1.964-2.578,2.944-5.614,2.944-9.105
		c0-3.888-1.256-7.039-3.765-9.451C325.139,341.481,321.259,339.727,316.006,338.63"/>
	<path d="M366.299,338.63l-9.475-1.996c-2.492-0.529-4.357-1.313-5.585-2.344c-1.233-1.03-1.85-2.342-1.85-3.938
		c0-1.829,0.857-3.352,2.57-4.565c1.711-1.211,3.946-1.818,6.708-1.818c2.925,0,5.253,0.723,6.983,2.168
		c1.729,1.447,2.742,3.25,3.043,5.412l11.719-0.995c-0.398-3.294-1.53-6.146-3.389-8.557c-1.866-2.411-4.364-4.279-7.51-5.611
		c-3.141-1.327-6.839-1.993-11.095-1.993c-4.357,0-8.173,0.691-11.445,2.069c-3.276,1.379-5.823,3.308-7.634,5.786
		c-1.811,2.476-2.717,5.378-2.717,8.701c0,4.023,1.306,7.324,3.917,9.9c2.607,2.579,6.474,4.397,11.593,5.461l9.229,1.946
		c2.36,0.5,4.172,1.255,5.437,2.269c1.263,1.016,1.896,2.319,1.896,3.915c0,1.86-0.9,3.409-2.693,4.639
		c-1.797,1.231-4.258,1.843-7.38,1.843c-3.128,0-5.622-0.687-7.483-2.066c-1.863-1.379-3.042-3.384-3.539-6.011l-12.321,0.995
		c0.467,3.593,1.738,6.635,3.815,9.129c2.079,2.496,4.789,4.388,8.13,5.687c3.341,1.297,7.156,1.944,11.445,1.944
		c4.49,0,8.471-0.716,11.945-2.143c3.474-1.432,6.193-3.434,8.154-6.01c1.962-2.578,2.943-5.614,2.943-9.105
		c0-3.888-1.256-7.039-3.766-9.451C375.435,341.481,371.554,339.727,366.299,338.63"/>
	<path d="M394.44,293.246c-2.13,0-3.913,0.683-5.361,2.045c-1.446,1.361-2.169,3.058-2.169,5.087c0,1.994,0.723,3.682,2.169,5.059
		c1.448,1.382,3.231,2.072,5.361,2.072c2.097,0,3.873-0.69,5.337-2.072c1.463-1.377,2.192-3.064,2.192-5.059
		c0-2.029-0.722-3.726-2.17-5.087C398.355,293.929,396.567,293.246,394.44,293.246"/>
</g>
<rect fill="#000000" x="388.057" y="315.341" width="12.77" height="54.062"/>
<g fill="#000000">
	<path d="M443.68,354.314c-0.647,1.215-1.455,2.245-2.419,3.094c-0.962,0.847-2.094,1.505-3.391,1.969
		c-1.297,0.47-2.762,0.7-4.39,0.7c-2.859,0-5.278-0.748-7.257-2.245c-1.979-1.496-3.484-3.557-4.513-6.186
		c-1.033-2.624-1.548-5.667-1.548-9.126c0-3.491,0.515-6.557,1.548-9.201c1.028-2.644,2.533-4.713,4.513-6.21
		c1.979-1.495,4.397-2.242,7.257-2.242c1.597,0,3.042,0.23,4.336,0.694c1.298,0.469,2.438,1.123,3.42,1.972
		c0.978,0.85,1.796,1.854,2.443,3.018c0.647,1.166,1.104,2.461,1.371,3.888l12.269-1.144c-0.431-2.827-1.314-5.405-2.644-7.733
		c-1.332-2.323-3.042-4.319-5.138-5.985c-2.094-1.66-4.512-2.939-7.256-3.838c-2.744-0.897-5.709-1.346-8.902-1.346
		c-5.253,0-9.843,1.181-13.766,3.539c-3.921,2.362-6.974,5.66-9.15,9.902c-2.18,4.236-3.27,9.136-3.27,14.687
		c0,5.554,1.09,10.433,3.27,14.64c2.177,4.205,5.229,7.488,9.15,9.85c3.923,2.36,8.513,3.539,13.766,3.539
		c3.226,0,6.218-0.457,8.978-1.369c2.762-0.916,5.195-2.221,7.307-3.919c2.112-1.695,3.833-3.712,5.162-6.058
		c1.329-2.345,2.178-4.928,2.543-7.756l-12.271-1.146C444.803,351.764,444.327,353.104,443.68,354.314"/>
	<path d="M503.82,343.894c-2.514-2.412-6.394-4.165-11.646-5.264l-9.477-1.994c-2.493-0.531-4.357-1.314-5.586-2.346
		c-1.231-1.03-1.844-2.342-1.844-3.938c0-1.829,0.855-3.349,2.568-4.565c1.711-1.214,3.945-1.821,6.705-1.821
		c2.926,0,5.252,0.726,6.985,2.173c1.729,1.445,2.741,3.248,3.04,5.408l11.721-0.996c-0.397-3.291-1.531-6.141-3.391-8.554
		c-1.863-2.407-4.364-4.279-7.504-5.608c-3.146-1.333-6.843-1.996-11.101-1.996c-4.357,0-8.169,0.689-11.445,2.069
		c-3.276,1.379-5.817,3.308-7.63,5.783c-1.812,2.481-2.72,5.381-2.72,8.706c0,4.021,1.305,7.322,3.916,9.898
		c2.608,2.577,6.474,4.397,11.596,5.461l9.226,1.944c2.363,0.499,4.174,1.257,5.436,2.272c1.264,1.014,1.896,2.317,1.896,3.913
		c0,1.864-0.896,3.409-2.694,4.641c-1.793,1.229-4.254,1.844-7.379,1.844c-3.126,0-5.622-0.689-7.483-2.072
		c-1.861-1.376-3.04-3.381-3.539-6.008l-12.318,0.999c0.464,3.589,1.736,6.631,3.813,9.125c2.08,2.493,4.789,4.39,8.13,5.687
		c3.344,1.297,7.158,1.944,11.446,1.944c4.489,0,8.473-0.716,11.947-2.145c3.472-1.428,6.19-3.432,8.152-6.011
		c1.963-2.575,2.944-5.611,2.944-9.1C507.585,349.454,506.329,346.303,503.82,343.894"/>
</g>
<polygon fill="#000000" points="240.81,288.329 240.735,288.329 251.212,308.302 263.07,308.302 252.399,288.329 "/>
</svg>
