<?xml version="1.0" encoding="UTF-8" standalone="no"?>
<!DOCTYPE svg PUBLIC "-//W3C//DTD SVG 1.1//EN" "http://www.w3.org/Graphics/SVG/1.1/DTD/svg11.dtd">
<svg width="100%" height="100%" viewBox="0 0 125 32" version="1.1" xmlns="http://www.w3.org/2000/svg" xmlns:xlink="http://www.w3.org/1999/xlink" xml:space="preserve" xmlns:serif="http://www.serif.com/" style="fill-rule:evenodd;clip-rule:evenodd;stroke-linejoin:round;stroke-miterlimit:2;">
    <g id="Mesa-de-trabajo2" serif:id="Mesa de trabajo2" transform="matrix(0.886525,0,0,0.421053,0,0)">
        <rect x="0" y="0" width="141" height="76" style="fill:none;"/>
        <clipPath id="_clip1">
            <rect x="0" y="0" width="141" height="76"/>
        </clipPath>
        <g clip-path="url(#_clip1)">
            <g transform="matrix(1.30367,0,0,2.375,-11.28,-78.375)">
                <rect id="Mesa-de-trabajo1" serif:id="Mesa de trabajo1" x="0" y="0" width="122" height="76" style="fill:none;"/>
                <g transform="matrix(0.176787,0,0,0.204319,2.59563,25.9098)">
                    <g id="Mesa-de-trabajo11" serif:id="Mesa de trabajo1">
                        <g>
                            <g>
                                <g>
                                    <g id="Capa_1">
                                        <path d="M71.33,58.64L58.06,58.64L58.06,55.88C58.06,51.3 61.53,49.32 65.48,49.32C67.485,49.291 69.483,49.557 71.41,50.11L71.41,40.71C68.877,40.082 66.28,39.746 63.67,39.71C53.24,39.71 46.21,45.79 46.21,55.91L46.21,58.59L35.94,58.59L35.94,68.07L46.21,68.07L46.21,97.51L58.06,97.51L58.06,68.12L71.33,68.12L71.33,58.64Z" style="fill-rule:nonzero;"/>
                                        <path d="M90.05,62.75C88.55,59.27 85.05,57.3 80.41,57.3C78.055,57.301 75.723,57.756 73.54,58.64L73.54,68C74.603,67.753 75.689,67.622 76.78,67.61C78.99,67.61 80.1,68.79 80.1,70.77L80.1,97.51L92,97.51L92,78.71C92,72.31 96.18,68.44 102.42,68.44C103.65,68.423 104.875,68.581 106.06,68.91L106.06,57.62C105.021,57.399 103.962,57.292 102.9,57.3C98.032,57.171 93.341,59.161 90.05,62.75Z" style="fill-rule:nonzero;"/>
                                        <path d="M148.35,85.34L148.35,71.76C148.35,63.15 141.16,57.3 129.71,57.3C118.89,57.3 111.38,63.46 111.38,72.15L122.38,72.15C122.38,68.6 125.15,66.3 129.57,66.3C133.76,66.3 136.57,68.12 136.57,70.73C136.57,72.55 135.39,73.65 133.02,73.97L123.22,75.31C113.51,76.73 109.22,81.31 109.22,87.16C109.22,94.03 115.62,98.77 125.02,98.77C130.23,98.77 135.02,97.27 138.53,94.03C140.27,96.95 143.66,98.77 148.48,98.77C150.764,98.766 153.033,98.394 155.2,97.67L155.2,87.87C154.015,88.336 152.753,88.577 151.48,88.58C149.38,88.58 148.35,87.55 148.35,85.34ZM136.58,81.63C136.58,86.76 132.71,90.08 126.31,90.08C122.76,90.08 120.47,88.42 120.47,86.08C120.47,83.87 122.28,82.37 125.76,81.9L136.58,80.47L136.58,81.63Z" style="fill-rule:nonzero;"/>
                                        <path d="M175.37,97.51L175.37,75.94C175.37,70.94 178.93,67.49 184.14,67.49C189.35,67.49 192.44,71.04 192.44,76.34L192.44,97.51L204.36,97.51L204.36,74.76C204.36,64.41 197.25,57.3 186.91,57.3C181.22,57.3 176.4,59.3 173.32,62.43C171.66,59.2 168.18,57.3 163.84,57.3C161.496,57.317 159.177,57.771 157,58.64L157,68C158.065,67.766 159.15,67.635 160.24,67.61C162.53,67.61 163.55,68.79 163.55,70.77L163.55,97.51L175.37,97.51Z" style="fill-rule:nonzero;"/>
                                        <path d="M248.6,88.42L226.49,88.42L248.68,67.41L248.68,58.64L212.19,58.64L212.19,67.65L233.83,67.65L211.71,88.66L211.71,97.51L248.6,97.51L248.6,88.42Z" style="fill-rule:nonzero;"/>
                                        <path d="M300.29,89.05C295.39,89.05 292,86.68 292,83.45L281.49,83.45C281.49,91.9 289.07,97.51 300.49,97.51C311.39,97.51 318.66,92.61 318.66,85.18C318.66,77.6 313.52,73.73 305.66,72.7L300.37,72C296.66,71.53 293.81,70.58 293.81,68C293.81,65.71 296.1,64.21 299.58,64.21C303.85,64.21 306.77,66.21 306.77,69.5L317.43,69.5C317.43,61.76 309.93,56.07 299.5,56.07C289.23,56.07 282.36,61.07 282.36,68.48C282.36,76.93 288.99,79.54 295,80.48L300.45,81.27C304.16,81.83 306.93,82.7 306.93,85.27C306.93,87.47 304.16,89.05 300.29,89.05Z" style="fill-rule:nonzero;"/>
                                        <path d="M346.27,97.51C357.09,97.51 365.27,91.34 366.49,81.39L355.19,81.39C354.25,85.39 350.93,87.95 346.27,87.95C340.03,87.95 335.92,83.45 335.92,76.81C335.92,70.17 340,65.59 346.27,65.59C350.93,65.59 354.27,68.12 355.19,72.15L366.49,72.15C365.23,62.27 357.09,56 346.27,56C333.27,56 324.54,64.3 324.54,76.78C324.54,89.26 333.23,97.51 346.27,97.51Z" style="fill-rule:nonzero;"/>
                                        <path d="M386.32,74.68C386.32,69.62 389.8,66.22 395.09,66.22C400.09,66.22 403.38,69.78 403.38,75.07L403.38,96.24L415.31,96.24L415.31,73.49C415.31,63.14 408.31,56.03 398.17,56.03C393.51,56.03 389.48,57.3 386.32,60.14L386.32,39.76L374.47,39.76L374.47,96.24L386.32,96.24L386.32,74.68Z" style="fill-rule:nonzero;"/>
                                        <path d="M465.63,84.31L465.63,57.38L453.79,57.38L453.79,78.86C453.79,84.08 450.31,87.4 445.1,87.4C439.89,87.4 436.8,83.84 436.8,78.47L436.8,57.38L424.87,57.38L424.87,80.05C424.87,90.4 431.87,97.51 442.25,97.51C447.052,97.658 451.737,95.993 455.37,92.85C457.1,95.77 460.66,97.51 465.79,97.51C468.099,97.479 470.391,97.105 472.59,96.4L472.59,86.61C471.369,87.045 470.086,87.285 468.79,87.32C466.66,87.32 465.63,86.37 465.63,84.31Z" style="fill-rule:nonzero;"/>
                                        <path d="M502.45,56C498.286,55.953 494.243,57.413 491.07,60.11L491.07,39.76L479.15,39.76L479.15,96.24L490.92,96.24L490.92,93.16C494.057,96.043 498.191,97.602 502.45,97.51C514.54,97.51 522.83,89.05 522.83,76.81C522.83,64.57 514.54,56 502.45,56ZM501,88.26C494.91,88.26 491,83.68 491,76.81C491,69.94 494.95,65.36 501,65.36C507.05,65.36 511.19,69.94 511.19,76.81C511.19,83.68 507.11,88.26 501,88.26Z" style="fill-rule:nonzero;"/>
                                        <path d="M549.93,56C537.29,56 528.93,64.3 528.93,76.78C528.93,89.26 537.61,97.48 550.65,97.48C559.73,97.48 567.24,93.48 569.92,85.07L558.22,85.07C556.88,87.13 554.22,88.47 550.72,88.47C545.885,88.57 541.594,85.269 540.45,80.57L570.31,80.57C570.507,79.132 570.588,77.681 570.55,76.23C570.55,64.09 562.25,56 549.93,56ZM540.29,73.54C540.838,68.503 545.226,64.69 550.29,64.85C550.423,64.844 550.557,64.841 550.691,64.841C555.408,64.841 559.291,68.723 559.291,73.441C559.291,73.474 559.29,73.507 559.29,73.54L540.29,73.54Z" style="fill-rule:nonzero;"/>
                                        <path d="M607.36,67.65L607.36,56.35C606.323,56.119 605.263,56.001 604.2,56C599.35,55.888 594.681,57.876 591.4,61.45C589.9,57.98 586.4,56 581.77,56C579.411,55.999 577.074,56.458 574.89,57.35L574.89,66.7C575.952,66.445 577.038,66.311 578.13,66.3C580.34,66.3 581.45,67.49 581.45,69.46L581.45,96.24L593.3,96.24L593.3,77.44C593.3,71.04 597.49,67.17 603.73,67.17C604.957,67.152 606.18,67.314 607.36,67.65Z" style="fill-rule:nonzero;"/>
                                        <path d="M618.26,81.15C618.26,91.82 624.98,97.51 635.33,97.51C638.258,97.475 641.171,97.075 644,96.32L644,86.32C641.706,86.878 639.36,87.196 637,87.27C632.74,87.27 630.05,84.98 630.05,80.79L630.05,66.86L644,66.86L644,57.38L630.11,57.38L630.11,45.61L618.26,45.61L618.26,50.5C618.26,55.4 616.61,57.38 612.5,57.38L609.5,57.38L609.5,66.86L618.26,66.86L618.26,81.15Z" style="fill-rule:nonzero;"/>
                                        <path d="M219,127.37C215.06,127.37 212,130.13 212,133.85C212.083,137.472 215.085,140.406 218.708,140.406C218.806,140.406 218.903,140.404 219,140.4C223,140.4 226,137.56 226,133.85C226,130.14 223,127.37 219,127.37Z" style="fill-rule:nonzero;"/>
                                        <path d="M195.35,144.12C195.35,139.53 198.82,137.56 202.77,137.56C204.775,137.531 206.773,137.797 208.7,138.35L208.7,129C206.18,128.375 203.596,128.04 201,128C190.57,128 183.54,134.08 183.54,144.2L183.54,146.88L173.23,146.88L173.23,156.36L183.5,156.36L183.5,185.75L195.35,185.75L195.35,156.36L213.12,156.36L213.12,185.75L225,185.75L225,146.88L195.35,146.88L195.35,144.12Z" style="fill-rule:nonzero;"/>
                                        <path d="M246.7,173.82L246.7,129.27L234.85,129.27L234.85,177.06C234.85,183.38 239.27,187.01 246.78,187.01C249.114,187.003 251.432,186.628 253.65,185.9L253.65,176.11C252.43,176.538 251.152,176.777 249.86,176.82C247.8,176.82 246.7,176 246.7,173.82Z" style="fill-rule:nonzero;"/>
                                        <path d="M283.9,145.54C279.24,145.54 275.22,146.8 272.06,149.65L272.06,129.27L260.21,129.27L260.21,185.75L272.06,185.75L272.06,164.18C272.06,159.13 275.53,155.73 280.82,155.73C285.82,155.73 289.12,159.28 289.12,164.58L289.12,185.75L301.05,185.75L301.05,163C301.05,152.65 294,145.54 283.9,145.54Z" style="fill-rule:nonzero;"/>
                                        <path d="M348,173.58L348,160C348,151.39 340.81,145.55 329.36,145.55C318.54,145.55 311.03,151.71 311.03,160.4L322.03,160.4C322.03,156.84 324.8,154.55 329.22,154.55C333.41,154.55 336.22,156.37 336.22,158.98C336.22,160.79 335.04,161.9 332.67,162.22L322.87,163.56C313.16,164.98 308.87,169.56 308.87,175.41C308.87,182.28 315.27,187.02 324.67,187.02C329.88,187.02 334.62,185.52 338.18,182.28C339.91,185.2 343.31,187.02 348.13,187.02C350.412,187.013 352.677,186.638 354.84,185.91L354.84,176.12C353.658,176.586 352.4,176.827 351.13,176.83C349,176.82 348,175.79 348,173.58ZM336.23,169.87C336.23,175 332.36,178.32 325.96,178.32C322.41,178.32 320.12,176.66 320.12,174.32C320.12,172.11 321.93,170.61 325.41,170.14L336.23,168.71L336.23,169.87Z" style="fill-rule:nonzero;"/>
                                        <path d="M373.1,151C371.59,147.52 368.04,145.55 363.46,145.55C361.105,145.544 358.771,146 356.59,146.89L356.59,156.21C357.649,155.962 358.732,155.832 359.82,155.82C362.04,155.82 363.14,157 363.14,158.98L363.14,185.76L375,185.76L375,167C375,160.6 379.19,156.73 385.43,156.73C386.656,156.713 387.878,156.872 389.06,157.2L389.06,145.9C388.02,145.686 386.961,145.583 385.9,145.59C381.055,145.46 376.383,147.435 373.1,151Z" style="fill-rule:nonzero;"/>
                                        <path d="M448.38,145.54C443.275,145.391 438.362,147.535 435,151.38C431.819,147.541 427.033,145.383 422.05,145.54C417.216,145.408 412.527,147.229 409.05,150.59C407.39,147.43 403.99,145.54 399.57,145.54C397.216,145.547 394.884,146.001 392.7,146.88L392.7,156.2C393.764,155.961 394.85,155.83 395.94,155.81C398.15,155.81 399.25,156.99 399.25,158.97L399.25,185.75L411.1,185.75L411.1,164.18C411.1,159.05 414.26,155.73 419.1,155.73C423.68,155.73 426.61,159.2 426.61,164.58L426.61,185.75L438.53,185.75L438.53,164.18C438.53,159.05 441.38,155.73 445.72,155.73C450.72,155.73 453.86,159.2 453.86,164.58L453.86,185.75L465.79,185.75L465.79,163C465.84,152.57 458.65,145.54 448.38,145.54Z" style="fill-rule:nonzero;"/>
                                        <path d="M495.39,145.54C482.39,145.54 473.66,153.83 473.66,166.31C473.66,178.79 482.35,187.01 495.39,187.01C508.43,187.01 517.11,178.72 517.11,166.31C517.11,153.9 508.42,145.54 495.39,145.54ZM495.39,177.21C489.15,177.21 484.96,172.87 484.96,166.31C484.96,159.75 489.15,155.31 495.39,155.31C501.63,155.31 505.81,159.74 505.81,166.31C505.81,172.88 501.63,177.21 495.39,177.21Z" style="fill-rule:nonzero;"/>
                                        <path d="M551.4,145.54C545.71,145.54 540.89,147.54 537.81,150.67C536.15,147.43 532.67,145.54 528.33,145.54C525.976,145.554 523.646,146.009 521.46,146.88L521.46,156.2C522.525,155.966 523.61,155.835 524.7,155.81C527,155.81 528,157 528,159L528,185.78L539.85,185.78L539.85,164.18C539.85,159.13 543.41,155.73 548.62,155.73C553.83,155.73 556.92,159.28 556.92,164.58L556.92,185.75L568.84,185.75L568.84,163C568.85,152.65 561.74,145.54 551.4,145.54Z" style="fill-rule:nonzero;"/>
                                        <path d="M584.5,127.37C580.5,127.37 577.5,130.13 577.5,133.85C577.5,137.57 580.58,140.4 584.5,140.4C588.42,140.4 591.5,137.56 591.5,133.85C591.5,130.14 588.45,127.37 584.5,127.37Z" style="fill-rule:nonzero;"/>
                                        <rect x="578.57" y="146.88" width="11.85" height="38.87"/>
                                        <path d="M640.66,176.82C638.53,176.82 637.5,175.82 637.5,173.58L637.5,160C637.5,151.39 630.32,145.55 618.86,145.55C608.04,145.55 600.53,151.71 600.53,160.4L611.53,160.4C611.53,156.84 614.3,154.55 618.72,154.55C622.91,154.55 625.72,156.37 625.72,158.98C625.72,160.79 624.54,161.9 622.17,162.22L612.37,163.56C602.66,164.98 598.37,169.56 598.37,175.41C598.37,182.28 604.77,187.02 614.17,187.02C619.38,187.02 624.12,185.52 627.68,182.28C629.42,185.2 632.81,187.02 637.63,187.02C639.915,187.012 642.184,186.637 644.35,185.91L644.35,176.12C643.174,176.579 641.923,176.816 640.66,176.82ZM625.73,169.87C625.73,175 621.86,178.32 615.46,178.32C611.91,178.32 609.62,176.66 609.62,174.32C609.62,172.11 611.44,170.61 614.91,170.14L625.73,168.71L625.73,169.87Z" style="fill-rule:nonzero;"/>
                                        <rect x="71.25" y="129.68" width="5" height="56.11"/>
                                        <rect x="115" y="129.68" width="5" height="56.11"/>
                                        <rect x="49.36" y="151.9" width="5.09" height="33.89"/>
                                        <rect x="93.06" y="137.83" width="5.13" height="39.81"/>
                                        <rect x="136.8" y="144" width="5.2" height="41.79"/>
                                    </g>
                                </g>
                            </g>
                        </g>
                    </g>
                </g>
            </g>
        </g>
    </g>
</svg>
