<svg xmlns="http://www.w3.org/2000/svg" viewBox="0 0 512 512">
  <rect width="512" height="512" rx="80" fill="#0c4a4a"/>
  <g transform="translate(256,256) scale(0.26) translate(-1250,-860)">
    <g transform="matrix(1.3333333,0,0,-1.3333333,0,229.48) scale(0.1)">
      <path fill="#ffffff" d="m 1435.46,635.051 c -38.26,-62.141 -104.01,-84.879 -180.53,-84.879 -76.55,0 -142.27,22.738 -180.55,84.879 -31.24,50.597 -46.47,126.969 -53.91,197.082 179.77,31.199 351.06,198.717 351.06,441.827 0,45.25 -6.26,87.81 -17.37,127.44 33.49,-13.28 61.64,-35.06 81.3,-68.08 59.79,-100.45 60.97,-288.12 60.97,-349.132 0,-60.977 -1.18,-252.297 -60.97,-349.137 z M 879.371,98.0508 C 841.113,35.8906 775.359,13.1914 698.824,13.1914 c -76.523,0 -142.269,22.6992 -180.527,84.8594 -29.074,47.0702 -44.266,116.4492 -52.238,182.3282 181.761,28.68 356.593,197.191 356.593,442.812 0,49.942 -7.523,96.719 -20.937,139.774 31.89,-13.387 58.707,-34.817 77.656,-66.629 59.801,-100.445 60.965,-288.145 60.965,-349.137 0,-60.961 -1.164,-252.301 -60.965,-349.1482 z M 230.789,374.031 c -59.797,100.449 -60.965,288.141 -60.965,349.16 0,60.977 1.168,252.258 60.965,349.119 38.258,62.17 104.012,84.87 180.543,84.87 76.523,0 142.262,-22.7 180.527,-84.87 29.071,-47.08 44.262,-116.443 52.243,-182.314 -181.766,-28.68 -356.59,-197.187 -356.59,-442.797 0,-49.969 7.515,-96.719 20.933,-139.777 -31.89,13.387 -58.711,34.789 -77.656,66.609 z M 779.68,1623.11 c 38.254,62.17 104.004,84.86 180.519,84.86 76.511,0 142.271,-22.69 180.531,-84.86 31.24,-50.61 46.47,-126.98 53.91,-197.09 -179.77,-31.22 -351.046,-198.74 -351.046,-441.832 0,-45.25 6.261,-87.809 17.375,-127.434 -33.489,13.262 -61.637,35.055 -81.289,68.062 -59.809,100.434 -60.973,288.134 -60.973,349.144 0,60.97 1.164,252.27 60.973,349.15 z M 652.871,723.191 c 0,-61.019 -1.211,-248.711 -61.012,-349.16 -28.132,-47.211 -73.546,-71.64 -127.289,-80.66 -6.976,64.777 -7.281,124.449 -7.281,153.828 0,60.992 1.211,248.692 61.008,349.137 28.133,47.234 73.555,71.648 127.289,80.672 6.977,-64.766 7.285,-124.434 7.285,-153.817 z m 548.859,550.769 c 0,-60.99 -1.2,-248.71 -61,-349.144 -27.13,-45.543 -70.34,-69.828 -121.57,-79.597 -5.52,58.906 -5.78,111.847 -5.78,138.969 0,61.012 1.2,248.682 61,349.132 27.13,45.54 70.34,69.83 121.57,79.61 5.53,-58.93 5.78,-111.85 5.78,-138.97 z m 147.3,144.64 c -60.56,186.95 -233.26,302.53 -388.831,302.53 -192.508,0 -411.336,-176.93 -411.316,-447.17 -0.012,-50.63 7.41,-97.96 20.797,-141.48 -51.438,24.63 -105.867,37.88 -158.348,37.88 C 218.824,1170.36 0,993.371 0,723.191 0,496.629 148.738,335.73 314.477,289.59 378.684,110.289 546.914,0 698.824,0 c 192.508,0 411.336,176.961 411.336,447.199 0,46.02 -6.27,89.27 -17.45,129.473 52.56,-25.82 108.41,-39.66 162.22,-39.66 192.48,0 411.31,176.937 411.31,447.176 0,227.782 -150.38,389.282 -317.21,434.412"/>
    </g>
  </g>
</svg>
