<?xml version="1.0" encoding="UTF-8" standalone="no"?>
<svg
    xmlns:dc="http://purl.org/dc/elements/1.1/"
    xmlns:cc="http://creativecommons.org/ns#"
    xmlns:rdf="http://www.w3.org/1999/02/22-rdf-syntax-ns#"
    xmlns:svg="http://www.w3.org/2000/svg"
    xmlns="http://www.w3.org/2000/svg"
    viewBox="0 0 429.29333 229.48"
    height="229.48"
    width="429.29333"
    xml:space="preserve"
    id="svg2"
    version="1.1">
    
    <title>Logotipo Palau de la Música Orfeó Català</title>

    <defs id="defs6" />

    <g transform="matrix(1.3333333,0,0,-1.3333333,0,229.48)" id="g10">

        <g transform="scale(0.1)" id="g12">

            <path
                id="path14"
                class="logo"
                style="fill:#231f20;fill-opacity:1;fill-rule:nonzero;stroke:none"
                d="m 1435.46,635.051 c -38.26,-62.141 -104.01,-84.879 -180.53,-84.879 -76.55,0 -142.27,22.738 -180.55,84.879 -31.24,50.597 -46.47,126.969 -53.91,197.082 179.77,31.199 351.06,198.717 351.06,441.827 0,45.25 -6.26,87.81 -17.37,127.44 33.49,-13.28 61.64,-35.06 81.3,-68.08 59.79,-100.45 60.97,-288.12 60.97,-349.132 0,-60.977 -1.18,-252.297 -60.97,-349.137 z M 879.371,98.0508 C 841.113,35.8906 775.359,13.1914 698.824,13.1914 c -76.523,0 -142.269,22.6992 -180.527,84.8594 -29.074,47.0702 -44.266,116.4492 -52.238,182.3282 181.761,28.68 356.593,197.191 356.593,442.812 0,49.942 -7.523,96.719 -20.937,139.774 31.89,-13.387 58.707,-34.817 77.656,-66.629 59.801,-100.445 60.965,-288.145 60.965,-349.137 0,-60.961 -1.164,-252.301 -60.965,-349.1482 z M 230.789,374.031 c -59.797,100.449 -60.965,288.141 -60.965,349.16 0,60.977 1.168,252.258 60.965,349.119 38.258,62.17 104.012,84.87 180.543,84.87 76.523,0 142.262,-22.7 180.527,-84.87 29.071,-47.08 44.262,-116.443 52.243,-182.314 -181.766,-28.68 -356.59,-197.187 -356.59,-442.797 0,-49.969 7.515,-96.719 20.933,-139.777 -31.89,13.387 -58.711,34.789 -77.656,66.609 z M 779.68,1623.11 c 38.254,62.17 104.004,84.86 180.519,84.86 76.511,0 142.271,-22.69 180.531,-84.86 31.24,-50.61 46.47,-126.98 53.91,-197.09 -179.77,-31.22 -351.046,-198.74 -351.046,-441.832 0,-45.25 6.261,-87.809 17.375,-127.434 -33.489,13.262 -61.637,35.055 -81.289,68.062 -59.809,100.434 -60.973,288.134 -60.973,349.144 0,60.97 1.164,252.27 60.973,349.15 z M 652.871,723.191 c 0,-61.019 -1.211,-248.711 -61.012,-349.16 -28.132,-47.211 -73.546,-71.64 -127.289,-80.66 -6.976,64.777 -7.281,124.449 -7.281,153.828 0,60.992 1.211,248.692 61.008,349.137 28.133,47.234 73.555,71.648 127.289,80.672 6.977,-64.766 7.285,-124.434 7.285,-153.817 z m 548.859,550.769 c 0,-60.99 -1.2,-248.71 -61,-349.144 -27.13,-45.543 -70.34,-69.828 -121.57,-79.597 -5.52,58.906 -5.78,111.847 -5.78,138.969 0,61.012 1.2,248.682 61,349.132 27.13,45.54 70.34,69.83 121.57,79.61 5.53,-58.93 5.78,-111.85 5.78,-138.97 z m 147.3,144.64 c -60.56,186.95 -233.26,302.53 -388.831,302.53 -192.508,0 -411.336,-176.93 -411.316,-447.17 -0.012,-50.63 7.41,-97.96 20.797,-141.48 -51.438,24.63 -105.867,37.88 -158.348,37.88 C 218.824,1170.36 0,993.371 0,723.191 0,496.629 148.738,335.73 314.477,289.59 378.684,110.289 546.914,0 698.824,0 c 192.508,0 411.336,176.961 411.336,447.199 0,46.02 -6.27,89.27 -17.45,129.473 52.56,-25.82 108.41,-39.66 162.22,-39.66 192.48,0 411.31,176.937 411.31,447.176 0,227.782 -150.38,389.282 -317.21,434.412" />

            <path
                id="path16"
                class="letter"
                style="fill:#231f20;fill-opacity:1;fill-rule:nonzero;stroke:none"
                d="m 2031.22,1527.46 c 20.87,0 47.86,1.16 47.86,29 0,25.24 -24.08,28.72 -43.81,28.72 h -26.1 v -57.72 z m -58.6,89.05 h 69.04 c 39.73,0 75.7,-13.92 75.7,-59.46 0,-51.63 -38.58,-60.92 -82.09,-60.92 h -26.1 v -84.99 h -36.55 v 205.37" />

            <path
                id="path18"
                class="letter"
                style="fill:#231f20;fill-opacity:1;fill-rule:nonzero;stroke:none"
                d="m 2255.4,1489.46 -31.63,83.54 -32.19,-83.54 z m -46.41,127.05 h 31.61 l 88.48,-205.37 h -41.78 l -19.14,46.99 h -89.05 l -18.57,-46.99 h -40.9 l 89.35,205.37" />

            <path
                id="path20"
                class="letter"
                style="fill:#231f20;fill-opacity:1;fill-rule:nonzero;stroke:none"
                d="m 2379.49,1616.51 h 36.54 v -172.3 h 87.31 v -33.07 h -123.85 v 205.37" />

            <path
                id="path22"
                class="letter"
                style="fill:#231f20;fill-opacity:1;fill-rule:nonzero;stroke:none"
                d="m 2687.78,1489.46 -31.62,83.54 -32.2,-83.54 z m -46.41,127.05 h 31.61 l 88.48,-205.37 h -41.78 l -19.14,46.99 h -89.05 l -18.57,-46.99 h -40.89 l 89.34,205.37" />

            <path
                id="path24"
                class="letter"
                style="fill:#231f20;fill-opacity:1;fill-rule:nonzero;stroke:none"
                d="m 2970.53,1486.56 c 0,-49.6 -35.67,-80.65 -82.66,-80.65 -47,0 -82.68,31.05 -82.68,80.65 v 129.95 h 36.55 v -128.79 c 0,-20.31 11.03,-46.99 46.13,-46.99 35.09,0 46.12,26.68 46.12,46.99 v 128.79 h 36.54 v -129.95" />

            <path
                id="path26"
                class="letter"
                style="fill:#231f20;fill-opacity:1;fill-rule:nonzero;stroke:none"
                d="m 2036.43,1114.21 c 45.83,0 83.25,19.72 83.25,69.61 0,49.9 -32.49,69.63 -77.16,69.63 h -33.35 v -139.24 z m -63.81,172.3 h 80.93 c 53.95,0 104.42,-33.06 104.42,-102.69 0,-70.19 -59.46,-102.68 -108.78,-102.68 h -76.57 v 205.37" />

            <path
                id="path28"
                class="letter"
                style="fill:#231f20;fill-opacity:1;fill-rule:nonzero;stroke:none"
                d="m 2214.48,1286.51 h 136.03 v -33.06 h -99.49 v -50.49 h 94.28 v -33.06 h -94.28 v -55.69 h 104.72 v -33.07 h -141.26 v 205.37" />

            <path
                id="path30"
                class="letter"
                style="fill:#231f20;fill-opacity:1;fill-rule:nonzero;stroke:none"
                d="m 2521.01,1286.51 h 36.54 v -172.3 h 87.32 v -33.07 h -123.86 v 205.37" />

            <path
                id="path32"
                class="letter"
                style="fill:#231f20;fill-opacity:1;fill-rule:nonzero;stroke:none"
                d="m 2829.29,1159.46 -31.62,83.54 -32.2,-83.54 z m -46.4,127.05 h 31.61 l 88.47,-205.37 h -41.77 l -19.14,46.99 H 2753 l -18.56,-46.99 h -40.9 l 89.35,205.37" />

            <path
                id="path34"
                class="letter"
                style="fill:#231f20;fill-opacity:1;fill-rule:nonzero;stroke:none"
                d="m 1973.49,956.512 h 55.69 l 54.83,-143.879 55.4,143.879 h 55.11 V 751.141 h -34.81 v 170.554 h -0.57 l -62.38,-170.554 h -25.51 l -62.38,170.554 h -0.57 V 751.141 h -34.81 v 205.371" />

            <path
                id="path36"
                class="letter"
                style="fill:#231f20;fill-opacity:1;fill-rule:nonzero;stroke:none"
                d="m 2359.78,1012.2 h 39.45 l -40.9,-41.762 h -27.26 z m 67.59,-185.641 c 0,-49.598 -35.68,-80.645 -82.67,-80.645 -46.99,0 -82.67,31.047 -82.67,80.645 v 129.953 h 36.55 V 827.723 c 0,-20.313 11.02,-46.993 46.12,-46.993 35.1,0 46.13,26.68 46.13,46.993 v 128.789 h 36.54 V 826.559" />

            <path
                id="path38"
                class="letter"
                style="fill:#231f20;fill-opacity:1;fill-rule:nonzero;stroke:none"
                d="m 2594.68,912.418 c -7.83,11.027 -21.76,16.242 -35.97,16.242 -16.82,0 -33.65,-7.539 -33.65,-26.398 0,-41.192 97.46,-17.696 97.46,-90.789 0,-44.094 -34.8,-65.559 -75.12,-65.559 -25.53,0 -50.47,7.832 -67.3,27.852 l 27.56,26.691 c 8.99,-13.644 24.37,-21.477 40.61,-21.477 16.82,0 35.96,9.29 35.96,28.145 0,44.961 -97.46,19.141 -97.46,92.531 0,42.352 37.71,62.071 75.71,62.071 21.47,0 42.94,-6.086 58.88,-21.172 l -26.68,-28.137" />

            <path
                id="path40"
                class="letter"
                style="fill:#231f20;fill-opacity:1;fill-rule:nonzero;stroke:none"
                d="m 2681.36,751.141 h 36.5625 V 956.512 H 2681.36 Z" />

            <path
                id="path42"
                class="letter"
                style="fill:#231f20;fill-opacity:1;fill-rule:nonzero;stroke:none"
                d="m 2925.57,908.355 c -15.08,15.958 -29,20.305 -43.22,20.305 -42.35,0 -70.48,-32.48 -70.48,-73.39 0,-43.797 28.13,-76.29 70.48,-76.29 16.54,0 32.49,7.551 46.12,24.954 l 30.17,-21.465 c -18.57,-25.528 -46.41,-36.555 -76.57,-36.555 -63.24,0 -108.49,42.93 -108.49,107.043 0,65.84 45.25,108.77 108.49,108.77 27.84,0 51.63,-8.985 71.93,-32.481 l -28.43,-20.891" />

            <path
                id="path44"
                class="letter"
                style="fill:#231f20;fill-opacity:1;fill-rule:nonzero;stroke:none"
                d="m 3123.64,829.461 -31.62,83.535 -32.2,-83.535 z m -46.41,127.051 h 31.61 l 88.48,-205.371 h -41.78 l -19.14,46.992 h -89.05 l -18.57,-46.992 h -40.89 l 89.34,205.371" />

            <path
                id="path46"
                class="letter"
                style="fill:#231f20;fill-opacity:1;fill-rule:nonzero;stroke:none"
                d="m 2151.88,523.832 c 0,47.277 -33.07,85.277 -81.22,85.277 -48.16,0 -81.22,-38 -81.22,-85.277 0,-47.293 33.06,-85.293 81.22,-85.293 48.15,0 81.22,38 81.22,85.293 z m -188.55,0 c 0,62.066 44.97,107.898 107.33,107.898 62.36,0 107.32,-45.832 107.32,-107.898 0,-62.082 -44.96,-107.91 -107.32,-107.91 -62.36,0 -107.33,45.828 -107.33,107.91" />

            <path
                id="path48"
                class="letter"
                style="fill:#231f20;fill-opacity:1;fill-rule:nonzero;stroke:none"
                d="m 2263.2,536 h 21.76 c 26.97,0 62.07,0 62.07,33.949 0,29.582 -25.81,33.93 -49.6,33.93 h -34.23 z m -24.37,90.512 h 52.5 c 39.74,0 81.8,-5.801 81.8,-56.563 0,-29.879 -19.43,-49.32 -51.34,-54.25 l 58.3,-94.558 h -29.87 l -55.69,92.25 h -31.33 v -92.25 h -24.37 v 205.371" />

            <path
                id="path50"
                class="letter"
                style="fill:#231f20;fill-opacity:1;fill-rule:nonzero;stroke:none"
                d="m 2437.77,626.512 h 127.34 V 603.879 H 2462.13 V 536 h 95.73 v -22.609 h -95.73 v -92.25 h -24.36 v 205.371" />

            <path
                id="path52"
                class="letter"
                style="fill:#231f20;fill-opacity:1;fill-rule:nonzero;stroke:none"
                d="m 2620.77,626.512 h 129.08 v -22.633 h -104.72 v -64.391 h 97.76 v -22.629 h -97.76 V 443.77 h 109.93 v -22.629 h -134.29 v 205.371" />

            <path
                id="path54"
                class="letter"
                style="fill:#231f20;fill-opacity:1;fill-rule:nonzero;stroke:none"
                d="m 2920.06,682.781 h 31.91 l -41.48,-41.769 h -20.59 z m 71.07,-158.949 c 0,47.277 -33.07,85.277 -81.22,85.277 -48.16,0 -81.22,-38 -81.22,-85.277 0,-47.293 33.06,-85.293 81.22,-85.293 48.15,0 81.22,38 81.22,85.293 z m -188.55,0 c 0,62.066 44.96,107.898 107.33,107.898 62.36,0 107.32,-45.832 107.32,-107.898 0,-62.082 -44.96,-107.91 -107.32,-107.91 -62.37,0 -107.33,45.828 -107.33,107.91" />

            <path
                id="path56"
                class="letter"
                style="fill:#231f20;fill-opacity:1;fill-rule:nonzero;stroke:none"
                d="m 2119.11,254.16 c -12.19,16.531 -31.62,24.949 -51.35,24.949 -45.83,0 -78.32,-40.32 -78.32,-85.277 0,-47.57 32.2,-85.293 78.32,-85.293 24.95,0 44.96,10.16 59.46,28.723 l 18.28,-15.371 c -18.28,-24.6605 -44.96,-35.9691 -77.74,-35.9691 -58.89,0 -104.43,45.5391 -104.43,107.9101 0,60.328 43.52,107.898 104.43,107.898 27.85,0 55.12,-9.57 72.52,-32.199 l -21.17,-15.371" />

            <path
                id="path58"
                class="letter"
                style="fill:#231f20;fill-opacity:1;fill-rule:nonzero;stroke:none"
                d="m 2290.47,265.18 h -0.57 l -42.64,-100.938 h 83.83 z m -11.01,31.332 h 22.91 l 87.31,-205.3714 h -28.43 l -20.88,50.4684 h -102.69 l -21.17,-50.4684 h -27.56 l 90.51,205.3714" />

            <path
                id="path60"
                class="letter"
                style="fill:#231f20;fill-opacity:1;fill-rule:nonzero;stroke:none"
                d="m 2576.43,273.879 h -67.88 V 91.1406 h -24.37 V 273.879 h -67.87 v 22.633 h 160.12 v -22.633" />

            <path
                id="path62"
                class="letter"
                style="fill:#231f20;fill-opacity:1;fill-rule:nonzero;stroke:none"
                d="m 2692.99,265.18 h -0.57 l -42.64,-100.938 h 83.83 z m -11.01,31.332 h 22.91 L 2792.2,91.1406 h -28.43 l -20.88,50.4684 H 2640.2 l -21.17,-50.4684 h -27.56 l 90.51,205.3714" />

            <path
                id="path64"
                class="letter"
                style="fill:#231f20;fill-opacity:1;fill-rule:nonzero;stroke:none"
                d="m 2846.97,296.512 h 24.36 V 113.77 h 93.99 V 91.1406 H 2846.97 V 296.512" />

            <path
                id="path66"
                class="letter"
                style="fill:#231f20;fill-opacity:1;fill-rule:nonzero;stroke:none"
                d="m 3120.45,265.18 h -0.57 l -42.64,-100.938 h 83.83 z m 18.86,45.832 h -20.59 l -41.48,41.769 h 31.91 z m -29.87,-14.5 h 22.91 l 87.31,-205.3714 h -28.42 l -20.89,50.4684 h -102.69 l -21.17,-50.4684 h -27.56 l 90.51,205.3714" />
        </g>
    </g>
</svg>
